<svg width="198" height="20" viewBox="0 0 198 20" fill="none" xmlns="http://www.w3.org/2000/svg">
<g filter="url(#filter0_dd)">
<path d="M15.7396 5.21011C15.9758 4.97992 16.0592 4.64208 15.9573 4.32802C15.8552 4.01397 15.5892 3.78978 15.2624 3.74221L12.3568 3.32002C12.2331 3.302 12.1262 3.22439 12.0709 3.11218L10.7719 0.47961C10.6261 0.183818 10.33 0 10.0001 0C9.67045 0 9.37442 0.183818 9.22856 0.47961L7.92934 3.11242C7.87407 3.22463 7.76691 3.30224 7.64316 3.32027L4.73763 3.74245C4.41108 3.78978 4.14484 4.01421 4.04272 4.32826C3.94084 4.64232 4.02422 4.98016 4.26042 5.21035L6.36268 7.25951C6.4523 7.34697 6.49339 7.47288 6.47225 7.59591L5.9763 10.4894C5.93233 10.7441 5.99913 10.9919 6.16396 11.1872C6.42011 11.4917 6.86728 11.5844 7.22482 11.3965L9.82327 10.0302C9.93188 9.97329 10.0686 9.97377 10.177 10.0302L12.7757 11.3965C12.902 11.4631 13.0368 11.4967 13.176 11.4967C13.43 11.4967 13.6707 11.3838 13.8363 11.1872C14.0014 10.9919 14.0679 10.7436 14.0239 10.4894L13.5278 7.59591C13.5066 7.47264 13.5477 7.34697 13.6373 7.25951L15.7396 5.21011Z" fill="#9D2929"/>
<path d="M31.7396 5.21011C31.9758 4.97992 32.0592 4.64208 31.9573 4.32802C31.8552 4.01397 31.5892 3.78978 31.2624 3.74221L28.3568 3.32002C28.2331 3.302 28.1262 3.22439 28.0709 3.11218L26.7719 0.47961C26.6261 0.183818 26.33 0 26.0001 0C25.6704 0 25.3744 0.183818 25.2286 0.47961L23.9293 3.11242C23.8741 3.22463 23.7669 3.30224 23.6432 3.32027L20.7376 3.74245C20.4111 3.78978 20.1448 4.01421 20.0427 4.32826C19.9408 4.64232 20.0242 4.98016 20.2604 5.21035L22.3627 7.25951C22.4523 7.34697 22.4934 7.47288 22.4722 7.59591L21.9763 10.4894C21.9323 10.7441 21.9991 10.9919 22.164 11.1872C22.4201 11.4917 22.8673 11.5844 23.2248 11.3965L25.8233 10.0302C25.9319 9.97329 26.0686 9.97377 26.177 10.0302L28.7757 11.3965C28.902 11.4631 29.0368 11.4967 29.176 11.4967C29.43 11.4967 29.6707 11.3838 29.8363 11.1872C30.0014 10.9919 30.0679 10.7436 30.0239 10.4894L29.5278 7.59591C29.5066 7.47264 29.5477 7.34697 29.6373 7.25951L31.7396 5.21011Z" fill="#9D2929"/>
<path d="M47.7396 5.21011C47.9758 4.97992 48.0592 4.64208 47.9573 4.32802C47.8552 4.01397 47.5892 3.78978 47.2624 3.74221L44.3568 3.32002C44.2331 3.302 44.1262 3.22439 44.0709 3.11218L42.7719 0.47961C42.6261 0.183818 42.33 0 42.0001 0C41.6704 0 41.3744 0.183818 41.2286 0.47961L39.9293 3.11242C39.8741 3.22463 39.7669 3.30224 39.6432 3.32027L36.7376 3.74245C36.4111 3.78978 36.1448 4.01421 36.0427 4.32826C35.9408 4.64232 36.0242 4.98016 36.2604 5.21035L38.3627 7.25951C38.4523 7.34697 38.4934 7.47288 38.4722 7.59591L37.9763 10.4894C37.9323 10.7441 37.9991 10.9919 38.164 11.1872C38.4201 11.4917 38.8673 11.5844 39.2248 11.3965L41.8233 10.0302C41.9319 9.97329 42.0686 9.97377 42.177 10.0302L44.7757 11.3965C44.902 11.4631 45.0368 11.4967 45.176 11.4967C45.43 11.4967 45.6707 11.3838 45.8363 11.1872C46.0014 10.9919 46.0679 10.7436 46.0239 10.4894L45.5278 7.59591C45.5066 7.47264 45.5477 7.34697 45.6373 7.25951L47.7396 5.21011Z" fill="#9D2929"/>
<path d="M63.7396 5.21011C63.9758 4.97992 64.0592 4.64208 63.9573 4.32802C63.8552 4.01397 63.5892 3.78978 63.2624 3.74221L60.3568 3.32002C60.2331 3.302 60.1262 3.22439 60.0709 3.11218L58.7719 0.47961C58.6261 0.183818 58.33 0 58.0001 0C57.6704 0 57.3744 0.183818 57.2286 0.47961L55.9293 3.11242C55.8741 3.22463 55.7669 3.30224 55.6432 3.32027L52.7376 3.74245C52.4111 3.78978 52.1448 4.01421 52.0427 4.32826C51.9408 4.64232 52.0242 4.98016 52.2604 5.21035L54.3627 7.25951C54.4523 7.34697 54.4934 7.47288 54.4722 7.59591L53.9763 10.4894C53.9323 10.7441 53.9991 10.9919 54.164 11.1872C54.4201 11.4917 54.8673 11.5844 55.2248 11.3965L57.8233 10.0302C57.9319 9.97329 58.0686 9.97377 58.177 10.0302L60.7757 11.3965C60.902 11.4631 61.0368 11.4967 61.176 11.4967C61.43 11.4967 61.6707 11.3838 61.8363 11.1872C62.0014 10.9919 62.0679 10.7436 62.0239 10.4894L61.5278 7.59591C61.5066 7.47264 61.5477 7.34697 61.6373 7.25951L63.7396 5.21011Z" fill="#9D2929"/>
<path d="M79.7396 5.21011C79.9758 4.97992 80.0592 4.64208 79.9573 4.32802C79.8552 4.01397 79.5892 3.78978 79.2624 3.74221L76.3568 3.32002C76.2331 3.302 76.1262 3.22439 76.0709 3.11218L74.7719 0.47961C74.6261 0.183818 74.33 0 74.0001 0C73.6704 0 73.3744 0.183818 73.2286 0.47961L71.9293 3.11242C71.8741 3.22463 71.7669 3.30224 71.6432 3.32027L68.7376 3.74245C68.4111 3.78978 68.1448 4.01421 68.0427 4.32826C67.9408 4.64232 68.0242 4.98016 68.2604 5.21035L70.3627 7.25951C70.4523 7.34697 70.4934 7.47288 70.4722 7.59591L69.9763 10.4894C69.9323 10.7441 69.9991 10.9919 70.164 11.1872C70.4201 11.4917 70.8673 11.5844 71.2248 11.3965L73.8233 10.0302C73.9319 9.97329 74.0686 9.97377 74.177 10.0302L76.7757 11.3965C76.902 11.4631 77.0368 11.4967 77.176 11.4967C77.43 11.4967 77.6707 11.3838 77.8363 11.1872C78.0014 10.9919 78.0679 10.7436 78.0239 10.4894L77.5278 7.59591C77.5066 7.47264 77.5477 7.34697 77.6373 7.25951L79.7396 5.21011Z" fill="#9D2929"/>
<path d="M95.7396 5.21011C95.9758 4.97992 96.0592 4.64208 95.9573 4.32802C95.8552 4.01397 95.5892 3.78978 95.2624 3.74221L92.3568 3.32002C92.2331 3.302 92.1262 3.22439 92.0709 3.11218L90.7719 0.47961C90.6261 0.183818 90.33 0 90.0001 0C89.6704 0 89.3744 0.183818 89.2286 0.47961L87.9293 3.11242C87.8741 3.22463 87.7669 3.30224 87.6432 3.32027L84.7376 3.74245C84.4111 3.78978 84.1448 4.01421 84.0427 4.32826C83.9408 4.64232 84.0242 4.98016 84.2604 5.21035L86.3627 7.25951C86.4523 7.34697 86.4934 7.47288 86.4722 7.59591L85.9763 10.4894C85.9323 10.7441 85.9991 10.9919 86.164 11.1872C86.4201 11.4917 86.8673 11.5844 87.2248 11.3965L89.8233 10.0302C89.9319 9.97329 90.0686 9.97377 90.177 10.0302L92.7757 11.3965C92.902 11.4631 93.0368 11.4967 93.176 11.4967C93.43 11.4967 93.6707 11.3838 93.8363 11.1872C94.0014 10.9919 94.0679 10.7436 94.0239 10.4894L93.5278 7.59591C93.5066 7.47264 93.5477 7.34697 93.6373 7.25951L95.7396 5.21011Z" fill="#9D2929"/>
<path d="M111.74 5.21011C111.976 4.97992 112.059 4.64208 111.957 4.32802C111.855 4.01397 111.589 3.78978 111.262 3.74221L108.357 3.32002C108.233 3.302 108.126 3.22439 108.071 3.11218L106.772 0.47961C106.626 0.183818 106.33 0 106 0C105.67 0 105.374 0.183818 105.229 0.47961L103.929 3.11242C103.874 3.22463 103.767 3.30224 103.643 3.32027L100.738 3.74245C100.411 3.78978 100.145 4.01421 100.043 4.32826C99.9408 4.64232 100.024 4.98016 100.26 5.21035L102.363 7.25951C102.452 7.34697 102.493 7.47288 102.472 7.59591L101.976 10.4894C101.932 10.7441 101.999 10.9919 102.164 11.1872C102.42 11.4917 102.867 11.5844 103.225 11.3965L105.823 10.0302C105.932 9.97329 106.069 9.97377 106.177 10.0302L108.776 11.3965C108.902 11.4631 109.037 11.4967 109.176 11.4967C109.43 11.4967 109.671 11.3838 109.836 11.1872C110.001 10.9919 110.068 10.7436 110.024 10.4894L109.528 7.59591C109.507 7.47264 109.548 7.34697 109.637 7.25951L111.74 5.21011Z" fill="#9D2929"/>
<path d="M127.74 5.21046C127.976 4.98026 128.059 4.64241 127.957 4.32835C127.855 4.01429 127.589 3.7901 127.262 3.74252L124.357 3.32033C124.233 3.30231 124.126 3.2247 124.071 3.11248L122.772 0.479619C122.626 0.183822 122.33 0 122 0C121.67 0 121.374 0.183822 121.228 0.479619L119.929 3.11248C119.874 3.2247 119.767 3.30231 119.643 3.32033L116.737 3.74276C116.411 3.7901 116.145 4.01429 116.043 4.32835C115.941 4.64241 116.024 4.98026 116.26 5.21046L118.363 7.25965C118.452 7.34712 118.493 7.47303 118.472 7.59606L117.976 10.4899C117.92 10.815 118.051 11.1372 118.318 11.3314C118.585 11.5258 118.932 11.551 119.225 11.397L121.823 10.0307C121.934 9.97253 122.066 9.97253 122.177 10.0307L124.776 11.397C124.902 11.4638 125.04 11.4967 125.177 11.4967C125.354 11.4967 125.531 11.4412 125.682 11.3314C125.949 11.1372 126.08 10.815 126.024 10.4899L125.528 7.5963C125.507 7.47303 125.548 7.34736 125.637 7.25989L127.74 5.21046ZM125.054 7.67752L125.551 10.5711C125.576 10.7167 125.519 10.8558 125.399 10.9428C125.279 11.0296 125.13 11.0401 124.999 10.9719L122.401 9.60537C122.275 9.53977 122.137 9.50661 122 9.50661C121.863 9.50661 121.725 9.53977 121.599 9.60561L119.001 10.9719C118.87 11.0401 118.721 11.0296 118.601 10.9428C118.481 10.8558 118.425 10.7169 118.45 10.5711L118.946 7.67752C118.994 7.3983 118.901 7.11331 118.698 6.9158L116.596 4.86636C116.49 4.76303 116.454 4.61742 116.5 4.47685C116.545 4.33604 116.66 4.23944 116.806 4.21806L119.712 3.79587C119.992 3.75526 120.235 3.57936 120.36 3.32514L121.659 0.692276C121.724 0.559636 121.852 0.480581 122 0.480581C122.148 0.480581 122.275 0.559636 122.341 0.692276L123.64 3.32514C123.765 3.57936 124.007 3.75526 124.288 3.79587L127.193 4.21806C127.34 4.23944 127.454 4.33604 127.5 4.47685C127.546 4.61742 127.51 4.76303 127.404 4.86636L125.302 6.91556C125.099 7.11331 125.006 7.39806 125.054 7.67752Z" fill="#9D2929"/>
<path d="M143.74 5.21046C143.976 4.98026 144.059 4.64241 143.957 4.32835C143.855 4.01429 143.589 3.7901 143.262 3.74252L140.357 3.32033C140.233 3.30231 140.126 3.2247 140.071 3.11248L138.772 0.479619C138.626 0.183822 138.33 0 138 0C137.67 0 137.374 0.183822 137.228 0.479619L135.929 3.11248C135.874 3.2247 135.767 3.30231 135.643 3.32033L132.737 3.74276C132.411 3.7901 132.145 4.01429 132.043 4.32835C131.941 4.64241 132.024 4.98026 132.26 5.21046L134.363 7.25965C134.452 7.34712 134.493 7.47303 134.472 7.59606L133.976 10.4899C133.92 10.815 134.051 11.1372 134.318 11.3314C134.585 11.5258 134.932 11.551 135.225 11.397L137.823 10.0307C137.934 9.97253 138.066 9.97253 138.177 10.0307L140.776 11.397C140.902 11.4638 141.04 11.4967 141.177 11.4967C141.354 11.4967 141.531 11.4412 141.682 11.3314C141.949 11.1372 142.08 10.815 142.024 10.4899L141.528 7.5963C141.507 7.47303 141.548 7.34736 141.637 7.25989L143.74 5.21046ZM141.054 7.67752L141.551 10.5711C141.576 10.7167 141.519 10.8558 141.399 10.9428C141.279 11.0296 141.13 11.0401 140.999 10.9719L138.401 9.60537C138.275 9.53977 138.137 9.50661 138 9.50661C137.863 9.50661 137.725 9.53977 137.599 9.60561L135.001 10.9719C134.87 11.0401 134.721 11.0296 134.601 10.9428C134.481 10.8558 134.425 10.7169 134.45 10.5711L134.946 7.67752C134.994 7.3983 134.901 7.11331 134.698 6.9158L132.596 4.86636C132.49 4.76303 132.454 4.61742 132.5 4.47685C132.545 4.33604 132.66 4.23944 132.806 4.21806L135.712 3.79587C135.992 3.75526 136.235 3.57936 136.36 3.32514L137.659 0.692276C137.724 0.559636 137.852 0.480581 138 0.480581C138.148 0.480581 138.275 0.559636 138.341 0.692276L139.64 3.32514C139.765 3.57936 140.007 3.75526 140.288 3.79587L143.193 4.21806C143.34 4.23944 143.454 4.33604 143.5 4.47685C143.546 4.61742 143.51 4.76303 143.404 4.86636L141.302 6.91556C141.099 7.11331 141.006 7.39806 141.054 7.67752Z" fill="#9D2929"/>
<path d="M159.74 5.21046C159.976 4.98026 160.059 4.64241 159.957 4.32835C159.855 4.01429 159.589 3.7901 159.262 3.74252L156.357 3.32033C156.233 3.30231 156.126 3.2247 156.071 3.11248L154.772 0.479619C154.626 0.183822 154.33 0 154 0C153.67 0 153.374 0.183822 153.228 0.479619L151.929 3.11248C151.874 3.2247 151.767 3.30231 151.643 3.32033L148.737 3.74276C148.411 3.7901 148.145 4.01429 148.043 4.32835C147.941 4.64241 148.024 4.98026 148.26 5.21046L150.363 7.25965C150.452 7.34712 150.493 7.47303 150.472 7.59606L149.976 10.4899C149.92 10.815 150.051 11.1372 150.318 11.3314C150.585 11.5258 150.932 11.551 151.225 11.397L153.823 10.0307C153.934 9.97253 154.066 9.97253 154.177 10.0307L156.776 11.397C156.902 11.4638 157.04 11.4967 157.177 11.4967C157.354 11.4967 157.531 11.4412 157.682 11.3314C157.949 11.1372 158.08 10.815 158.024 10.4899L157.528 7.5963C157.507 7.47303 157.548 7.34736 157.637 7.25989L159.74 5.21046ZM157.054 7.67752L157.551 10.5711C157.576 10.7167 157.519 10.8558 157.399 10.9428C157.279 11.0296 157.13 11.0401 156.999 10.9719L154.401 9.60537C154.275 9.53977 154.137 9.50661 154 9.50661C153.863 9.50661 153.725 9.53977 153.599 9.60561L151.001 10.9719C150.87 11.0401 150.721 11.0296 150.601 10.9428C150.481 10.8558 150.425 10.7169 150.45 10.5711L150.946 7.67752C150.994 7.3983 150.901 7.11331 150.698 6.9158L148.596 4.86636C148.49 4.76303 148.454 4.61742 148.5 4.47685C148.545 4.33604 148.66 4.23944 148.806 4.21806L151.712 3.79587C151.992 3.75526 152.235 3.57936 152.36 3.32514L153.659 0.692276C153.724 0.559636 153.852 0.480581 154 0.480581C154.148 0.480581 154.275 0.559636 154.341 0.692276L155.64 3.32514C155.765 3.57936 156.007 3.75526 156.288 3.79587L159.193 4.21806C159.34 4.23944 159.454 4.33604 159.5 4.47685C159.546 4.61742 159.51 4.76303 159.404 4.86636L157.302 6.91556C157.099 7.11331 157.006 7.39806 157.054 7.67752Z" fill="#9D2929"/>
<path d="M175.217 3.07812L171.684 11H170.547L174.068 3.35938H169.451V2.46875H175.217V3.07812ZM176.775 11.7324H175.844L179.406 2.46875H180.332L176.775 11.7324ZM184.955 11H183.865V3.77539L181.68 4.57812V3.59375L184.785 2.42773H184.955V11ZM193.48 7.36133C193.48 8.63086 193.264 9.57422 192.83 10.1914C192.396 10.8086 191.719 11.1172 190.797 11.1172C189.887 11.1172 189.213 10.8164 188.775 10.2148C188.338 9.60938 188.111 8.70703 188.096 7.50781V6.06055C188.096 4.80664 188.312 3.875 188.746 3.26562C189.18 2.65625 189.859 2.35156 190.785 2.35156C191.703 2.35156 192.379 2.64648 192.812 3.23633C193.246 3.82227 193.469 4.72852 193.48 5.95508V7.36133ZM192.396 5.87891C192.396 4.96094 192.268 4.29297 192.01 3.875C191.752 3.45312 191.344 3.24219 190.785 3.24219C190.23 3.24219 189.826 3.45117 189.572 3.86914C189.318 4.28711 189.188 4.92969 189.18 5.79688V7.53125C189.18 8.45312 189.312 9.13477 189.578 9.57617C189.848 10.0137 190.254 10.2324 190.797 10.2324C191.332 10.2324 191.729 10.0254 191.986 9.61133C192.248 9.19727 192.385 8.54492 192.396 7.6543V5.87891Z" fill="white"/>
</g>
<defs>
<filter id="filter0_dd" x="0" y="0" width="197.48" height="19.7324" filterUnits="userSpaceOnUse" color-interpolation-filters="sRGB">
<feFlood flood-opacity="0" result="BackgroundImageFix"/>
<feColorMatrix in="SourceAlpha" type="matrix" values="0 0 0 0 0 0 0 0 0 0 0 0 0 0 0 0 0 0 127 0"/>
<feOffset dy="4"/>
<feGaussianBlur stdDeviation="2"/>
<feColorMatrix type="matrix" values="0 0 0 0 0 0 0 0 0 0 0 0 0 0 0 0 0 0 0.25 0"/>
<feBlend mode="normal" in2="BackgroundImageFix" result="effect1_dropShadow"/>
<feColorMatrix in="SourceAlpha" type="matrix" values="0 0 0 0 0 0 0 0 0 0 0 0 0 0 0 0 0 0 127 0"/>
<feOffset dy="4"/>
<feGaussianBlur stdDeviation="2"/>
<feColorMatrix type="matrix" values="0 0 0 0 0 0 0 0 0 0 0 0 0 0 0 0 0 0 0.25 0"/>
<feBlend mode="normal" in2="effect1_dropShadow" result="effect2_dropShadow"/>
<feBlend mode="normal" in="SourceGraphic" in2="effect2_dropShadow" result="shape"/>
</filter>
</defs>
</svg>
